<svg xmlns="http://www.w3.org/2000/svg" viewBox="0 0 120 120" width="120" height="120">
  <defs>
    <linearGradient id="blueGrad" x1="0%" y1="0%" x2="100%" y2="100%">
      <stop offset="0%" style="stop-color:#1F386E;stop-opacity:1" />
      <stop offset="100%" style="stop-color:#2a4a8a;stop-opacity:1" />
    </linearGradient>
    <linearGradient id="orangeGrad" x1="0%" y1="0%" x2="100%" y2="100%">
      <stop offset="0%" style="stop-color:#ff9408;stop-opacity:1" />
      <stop offset="100%" style="stop-color:#ff7c00;stop-opacity:1" />
    </linearGradient>
  </defs>
  <rect width="120" height="120" fill="white" rx="20"/>
  <path d="M 60 25 L 85 40 L 85 70 L 60 85 L 35 70 L 35 40 Z" fill="none" stroke="url(#blueGrad)" stroke-width="3"/>
  <path d="M 60 40 L 77 50 L 77 65 L 60 75 L 60 40" fill="url(#blueGrad)" opacity="0.8"/>
  <path d="M 77 50 L 90 57 L 80 63 L 77 50" fill="url(#orangeGrad)"/>
  <path d="M 77 65 L 80 63 L 90 70 L 77 65" fill="#ff9408"/>
  <path d="M 60 50 L 77 60 L 77 65 L 60 75 L 43 65 L 43 60 Z" fill="white"/>
  <text x="60" y="105" font-family="Arial, sans-serif" font-size="11" font-weight="bold" text-anchor="middle" fill="#1F386E">CAPITAL</text>
</svg>
