<?xml version="1.0" encoding="UTF-8"?>
<svg version="1.1" viewBox="0 0 892 1600" width="768" height="1376" xmlns="http://www.w3.org/2000/svg">
<path transform="translate(0)" d="m0 0h892v1600h-892z" fill="#FCFCFC"/>
<path transform="translate(234,389)" d="m0 0h430l24 4 17 5 18 8 15 8 16 12 10 9 11 11 10 13 10 16 6 12 7 18 5 22 3 19v494l-3 17-6 23-8 20-10 18-10 14-13 15-13 12-15 11-17 10-16 7-18 6-14 3-17 2-28 1h-358l-33-1-23-3-21-6-15-6-16-8-16-11-13-11-14-14-11-14-7-11-10-19-7-19-5-20-2-15-1-3v-491l5-30 5-18 5-11 8-16 9-14 8-10 9-10 8-8 14-11 18-11 12-6 11-4 13-4 22-4z" fill="#1F386E"/>
<path transform="translate(440,505)" d="m0 0h12l11 2 15 6 21 13 15 9 112 68 23 14 12 8 10 9 7 10 5 11 4 16v246l-4 16-8 16-7 9-8 7-13 8-32 19-77 45-41 24-22 13-14 5-5 1h-19l-15-4-17-9-44-26-26-15-22-13-24-14-29-17-25-15-10-9-8-9-7-13-4-14-1-6v-243l3-15 6-14 10-13 11-9 20-12 51-31 21-13 32-19 21-13 23-14 15-9 15-5z" fill="#FCFCFC"/>
<path transform="translate(438,534)" d="m0 0h14l8 2 15 9 7 4 10 6 9 6 7 4 15 9 21 13 9 5 16 10 28 17 30 18 20 13 6 7 4 9-1 5-21 13-24 15-47 29-5 2-9-5-10-6-22-13-23-13-24-14-14-8-4-2h-14l-18 10-24 14-26 15-22 13-17 10v96l-3 4-5-1-15-8-23-13-11-6-23-13-11-6-7-6v-110l4-9 7-9 15-10 22-13 28-17 26-16 17-10 7-5 11-6 16-10 18-11 20-12 10-5z" fill="#295090"/>
<path transform="translate(235,805)" d="m0 0 6 2 28 15 18 10 24 13 16 9 54 30 23 13 21 12 6 5 5 10 1 3v124l-10-4-19-11-30-18-26-15-41-24-29-17-22-13-14-9-6-7-5-10-2-11v-104z" fill="#4D7EC2"/>
<path transform="translate(653,806)" d="m0 0h5l1 2v102l-2 13-5 10-7 8-13 8-128 75-28 17-16 8-5 1v-124l5-10 9-8 29-16 21-12 27-15 23-13 24-13 23-13 26-14z" fill="#FB9923"/>
<path transform="translate(278,829)" d="m0 0 5 1 28 15 16 9 54 30 23 13 21 12 6 5 5 10 1 3v53h-1l-1-7h-3l-2-6-3-1-15 1-7 3-24 2h-12l-11-4-11-7-12-12v-2l-5-2-3-6-9-10-7-10-7-8-4-5-11-8-8-12-6-5h-5l-4-9 1-6 8-6 5-2 1-4-5-6-5-5v-6l4-6z" fill="#578CCF"/>
<path transform="translate(657,667)" d="m0 0h1l1 109-3 5-47 26-22 12-18 10-6 1-2-2v-99l21-13 24-15 26-16 24-15z" fill="#FA9924"/>
<path transform="translate(315,607)" d="m0 0 2 1-7 6 2 12 1 10-5 19-3 17 2 20 5 11 1 12 4 9 5 8-1 4-22 12-21 12-25 14-11 6v2l3 3-5-2-6-5v-110l4-9 7-9 15-10 22-13 28-17z" fill="#1F386E"/>
<path transform="translate(813,1051)" d="m0 0 3 2-1 12-3 12-7 22-7 16-11 19-9 12-12 14-4 2v2l-14 11-14 10-16 9-18 7-21 6-16 3-18 1h-402l-26-3-17-4-25-10-17-9-14-10-13-11-14-14-9-12-7-10-12-23-5-14-4-13-2-11v-6l4 4 6 20 8 18 10 18 11 14 11 12 9 9 13 10 16 10 16 8 24 8 14 3 17 2 33 1h358l28-1 22-3 19-5 20-8 18-10 14-10 15-13 11-12 11-15 10-17 9-21 6-21z" fill="#9BA3AC"/>
<path transform="translate(813,1051)" d="m0 0 3 2-1 12-3 12-7 22-7 16-11 19-9 12-12 14-4 2v2l-14 11-14 10-16 9-18 7-21 6-16 3-18 1h-402l-26-3-17-4-25-10-17-9-14-10-13-11-14-14-9-12-7-10-12-23-5-14-4-13-2-11v-6l4 4 6 20 8 18 4 8v5l8 13 13 17 11 12 8 7 10 8 15 10 21 10 24 8 27 4 30 1h362l25-1 17-2 17-4 22-8 16-8 14-9 18-14 6-5 9-11 9-12 1-3-9 11-4 3 2-4 10-12 10-16 8-16 6-15 6-23z" fill="#B6B8BA"/>
<path transform="translate(577,719)" d="m0 0 2 1-13 9 2 4 26 15 19 11 2 4-2 8-1 13v10l1 6 5-1-1 4-23 12-21 12-6 3-5-1-1-1v-99z" fill="#FDBA51"/>
<path transform="translate(590,616)" d="m0 0 5 2 29 17 23 15 6 7 4 9-1 5-21 13-24 15-47 29-2-1 11-8 13-8 8-6h2l2-8 2-2 5-13 7-8 3-3 2-14 2-9 6-9-9-6-6-1-3 1-5-4-1-5-4-2-7-5z" fill="#1F386E"/>
<path transform="translate(328,732)" d="m0 0h2v11h1l1 56v28l-3 4-5-1-15-8-11-6-1-6 9-2 2-2 3-16 6-12 5-30 1-13z" fill="#4572B2"/>
<path transform="translate(234,882)" d="m0 0h1l1 28h6l9 6 13 9 3 5 2 11-3 4h-2v5l-6-2-12-8-6-7-5-10-1-4z" fill="#4270B1"/>
<path transform="translate(436,1015)" d="m0 0h1v36l-10-4-19-11-2-3 5 2 2-6 5-5 6-5 6-1 2 3h2z" fill="#4270B1"/>
<path transform="translate(590,616)" d="m0 0 5 2 29 17v2l-5-2-7-3-5 1-5-4-1-5-4-2-7-5z" fill="#1F3970"/>
<path transform="translate(235,805)" d="m0 0 6 2 2 5-2 5-5 2-1-1v-10z" fill="#598BCB"/>
<path transform="translate(525,539)" d="m0 0 6 1 9 4 4 3-2 4-14-8-3-2z" fill="#295091"/>
<path transform="translate(600,581)" d="m0 0 9 5 3 3v3l-5-1-10-6v-3z" fill="#295091"/>
<path transform="translate(646,783)" d="m0 0 3 1-4 3-16 9-3-2z" fill="#FDB346"/>
<path transform="translate(587,710)" d="m0 0m-1 1m-1 1v3l-21 13-2-1 11-8z" fill="#1F3A71"/>
<path transform="translate(333,596)" d="m0 0 2 1-7 6-2 3-9 1 3-3z" fill="#1F3A70"/>
<path transform="translate(634,603)" d="m0 0 8 4 4 5-2 1-12-7v-2z" fill="#295091"/>
<path transform="translate(784,1124)" d="m0 0 3 1-7 8-9 10v-3l8-9z" fill="#A9AEB3"/>
<path transform="translate(100,1112)" d="m0 0 3 4 7 10-1 2-6-8-4-4z" fill="#A6ACB3"/>
<path transform="translate(429,1043)" d="m0 0h5l2 6-9-2 2-1z" fill="#507FBF"/>
</svg>
